<?xml version="1.0" encoding="utf-8"?>
<!-- Generator: Adobe Illustrator 23.0.4, SVG Export Plug-In . SVG Version: 6.00 Build 0)  -->
<svg version="1.1" id="bottom-frame" xmlns="http://www.w3.org/2000/svg" xmlns:xlink="http://www.w3.org/1999/xlink" x="0px"
	 y="0px" viewBox="0 0 279.1 346.6" style="enable-background:new 0 0 279.1 346.6;" xml:space="preserve">
<style type="text/css">
	.frame-color{fill:#000000;}
	.background-color{fill:#ffffff;}
	.text-color{fill:#FFFFFF;}
</style>

<svg xmlns="http://www.w3.org/2000/svg" xmlns:xlink="http://www.w3.org/1999/xlink" version="1.1" width="259.9" height="259.9" viewBox="0 0 2000 2000" x="9.7" y="9.6" shape-rendering="crispEdges"><defs/><rect x="0" y="0" width="2000" height="2000" fill="#ffffff"/><svg viewBox="0 0 4 4" x="712" y="200" width="64" height="64" shape-rendering="auto"><path fill="#000000" d="M3.15,4A0.85,0.85,0,0,0,4,3.15V4Z"/></svg><svg viewBox="0 0 4 4" x="776" y="200" width="64" height="64" shape-rendering="auto"><path fill="#000000" d="M4,3.15V0.85A0.85,0.85,0,0,0,3.15,0H0.85A0.85,0.85,0,0,0,0,0.85V4H4Z"/></svg><svg viewBox="0 0 4 4" x="1032" y="200" width="64" height="64" shape-rendering="auto"><path fill="#000000" d="M3.15,4A0.85,0.85,0,0,0,4,3.15V4Z"/></svg><svg viewBox="0 0 4 4" x="1096" y="200" width="64" height="64" shape-rendering="auto"><path fill="#000000" d="M4,3.15V0.85A0.85,0.85,0,0,0,3.15,0H0.85A0.85,0.85,0,0,0,0,0.85V4H4Z"/></svg><svg viewBox="0 0 4 4" x="1224" y="200" width="64" height="64" shape-rendering="auto"><rect fill="#000000" width="4" height="4" rx="0.85"/></svg><svg viewBox="0 0 4 4" x="712" y="264" width="64" height="64" shape-rendering="auto"><path fill="#000000" d="M3.15,0H0.85A0.85,0.85,0,0,0,0,0.85v2.3A0.85,0.85,0,0,0,0.85,4H4V0Z"/></svg><svg viewBox="0 0 4 4" x="776" y="264" width="64" height="64" shape-rendering="auto"><rect fill="#000000" width="4" height="4"/></svg><svg viewBox="0 0 4 4" x="840" y="264" width="64" height="64" shape-rendering="auto"><path fill="#000000" d="M3.15,4A0.85,0.85,0,0,0,4,3.15V4Z"/></svg><svg viewBox="0 0 4 4" x="840" y="264" width="64" height="64" shape-rendering="auto"><path fill="#000000" d="M0.85,4A0.85,0.85,0,0,1,0,3.15V4Z"/></svg><svg viewBox="0 0 4 4" x="904" y="264" width="64" height="64" shape-rendering="auto"><path fill="#000000" d="M0.85,0A0.85,0.85,0,0,0,0,0.85V4H4V0H0.85Z"/></svg><svg viewBox="0 0 4 4" x="968" y="264" width="64" height="64" shape-rendering="auto"><rect fill="#000000" width="4" height="4"/></svg><svg viewBox="0 0 4 4" x="1032" y="264" width="64" height="64" shape-rendering="auto"><rect fill="#000000" width="4" height="4"/></svg><svg viewBox="0 0 4 4" x="1096" y="264" width="64" height="64" shape-rendering="auto"><path fill="#000000" d="M4,3.15A0.85,0.85,0,0,1,3.15,4H0V0H4V3.15Z"/></svg><svg viewBox="0 0 4 4" x="712" y="328" width="64" height="64" shape-rendering="auto"><path fill="#000000" d="M4,0.85V0H3.15A0.85,0.85,0,0,1,4,0.85Z"/></svg><svg viewBox="0 0 4 4" x="712" y="328" width="64" height="64" shape-rendering="auto"><path fill="#000000" d="M3.15,4A0.85,0.85,0,0,0,4,3.15V4Z"/></svg><svg viewBox="0 0 4 4" x="776" y="328" width="64" height="64" shape-rendering="auto"><rect fill="#000000" width="4" height="4"/></svg><svg viewBox="0 0 4 4" x="840" y="328" width="64" height="64" shape-rendering="auto"><rect fill="#000000" width="4" height="4"/></svg><svg viewBox="0 0 4 4" x="904" y="328" width="64" height="64" shape-rendering="auto"><rect fill="#000000" width="4" height="4"/></svg><svg viewBox="0 0 4 4" x="968" y="328" width="64" height="64" shape-rendering="auto"><path fill="#000000" d="M0.85,0H0V0.85A0.85,0.85,0,0,1,0.85,0Z"/></svg><svg viewBox="0 0 4 4" x="712" y="392" width="64" height="64" shape-rendering="auto"><path fill="#000000" d="M3.15,0H0.85A0.85,0.85,0,0,0,0,0.85v2.3A0.85,0.85,0,0,0,0.85,4H4V0Z"/></svg><svg viewBox="0 0 4 4" x="776" y="392" width="64" height="64" shape-rendering="auto"><path fill="#000000" d="M4,3.15A0.85,0.85,0,0,1,3.15,4H0V0H4V3.15Z"/></svg><svg viewBox="0 0 4 4" x="840" y="392" width="64" height="64" shape-rendering="auto"><path fill="#000000" d="M0.85,0H0V0.85A0.85,0.85,0,0,1,0.85,0Z"/></svg><svg viewBox="0 0 4 4" x="840" y="392" width="64" height="64" shape-rendering="auto"><path fill="#000000" d="M4,0.85V0H3.15A0.85,0.85,0,0,1,4,0.85Z"/></svg><svg viewBox="0 0 4 4" x="904" y="392" width="64" height="64" shape-rendering="auto"><path fill="#000000" d="M0,3.15A0.85,0.85,0,0,0,0.85,4h2.3A0.85,0.85,0,0,0,4,3.15V0H0V3.15Z"/></svg><svg viewBox="0 0 4 4" x="1032" y="392" width="64" height="64" shape-rendering="auto"><rect fill="#000000" width="4" height="4" rx="0.85"/></svg><svg viewBox="0 0 4 4" x="1160" y="392" width="64" height="64" shape-rendering="auto"><path fill="#000000" d="M0.85,0A0.85,0.85,0,0,0,0,0.85V4H4V0H0.85Z"/></svg><svg viewBox="0 0 4 4" x="1224" y="392" width="64" height="64" shape-rendering="auto"><path fill="#000000" d="M3.15,0A0.85,0.85,0,0,1,4,0.85V4H0V0H3.15Z"/></svg><svg viewBox="0 0 4 4" x="840" y="456" width="64" height="64" shape-rendering="auto"><path fill="#000000" d="M4,3.15V0.85A0.85,0.85,0,0,0,3.15,0H0.85A0.85,0.85,0,0,0,0,0.85V4H4Z"/></svg><svg viewBox="0 0 4 4" x="968" y="456" width="64" height="64" shape-rendering="auto"><rect fill="#000000" width="4" height="4" rx="0.85"/></svg><svg viewBox="0 0 4 4" x="1096" y="456" width="64" height="64" shape-rendering="auto"><path fill="#000000" d="M3.15,4A0.85,0.85,0,0,0,4,3.15V4Z"/></svg><svg viewBox="0 0 4 4" x="1160" y="456" width="64" height="64" shape-rendering="auto"><rect fill="#000000" width="4" height="4"/></svg><svg viewBox="0 0 4 4" x="1224" y="456" width="64" height="64" shape-rendering="auto"><path fill="#000000" d="M4,3.15A0.85,0.85,0,0,1,3.15,4H0V0H4V3.15Z"/></svg><svg viewBox="0 0 4 4" x="712" y="520" width="64" height="64" shape-rendering="auto"><path fill="#000000" d="M4,3.15V0.85A0.85,0.85,0,0,0,3.15,0H0.85A0.85,0.85,0,0,0,0,0.85V4H4Z"/></svg><svg viewBox="0 0 4 4" x="840" y="520" width="64" height="64" shape-rendering="auto"><rect fill="#000000" width="4" height="4"/></svg><svg viewBox="0 0 4 4" x="1032" y="520" width="64" height="64" shape-rendering="auto"><path fill="#000000" d="M3.15,0H0.85A0.85,0.85,0,0,0,0,0.85v2.3A0.85,0.85,0,0,0,0.85,4H4V0Z"/></svg><svg viewBox="0 0 4 4" x="1096" y="520" width="64" height="64" shape-rendering="auto"><rect fill="#000000" width="4" height="4"/></svg><svg viewBox="0 0 4 4" x="1160" y="520" width="64" height="64" shape-rendering="auto"><path fill="#000000" d="M4,3.15A0.85,0.85,0,0,1,3.15,4H0V0H4V3.15Z"/></svg><svg viewBox="0 0 4 4" x="1224" y="520" width="64" height="64" shape-rendering="auto"><path fill="#000000" d="M0.85,0H0V0.85A0.85,0.85,0,0,1,0.85,0Z"/></svg><svg viewBox="0 0 4 4" x="712" y="584" width="64" height="64" shape-rendering="auto"><path fill="#000000" d="M0,3.15A0.85,0.85,0,0,0,0.85,4h2.3A0.85,0.85,0,0,0,4,3.15V0H0V3.15Z"/></svg><svg viewBox="0 0 4 4" x="840" y="584" width="64" height="64" shape-rendering="auto"><path fill="#000000" d="M0,3.15A0.85,0.85,0,0,0,0.85,4h2.3A0.85,0.85,0,0,0,4,3.15V0H0V3.15Z"/></svg><svg viewBox="0 0 4 4" x="968" y="584" width="64" height="64" shape-rendering="auto"><path fill="#000000" d="M4,3.15V0.85A0.85,0.85,0,0,0,3.15,0H0.85A0.85,0.85,0,0,0,0,0.85V4H4Z"/></svg><svg viewBox="0 0 4 4" x="1032" y="584" width="64" height="64" shape-rendering="auto"><path fill="#000000" d="M4,0.85V0H3.15A0.85,0.85,0,0,1,4,0.85Z"/></svg><svg viewBox="0 0 4 4" x="1096" y="584" width="64" height="64" shape-rendering="auto"><path fill="#000000" d="M0,3.15A0.85,0.85,0,0,0,0.85,4h2.3A0.85,0.85,0,0,0,4,3.15V0H0V3.15Z"/></svg><svg viewBox="0 0 4 4" x="1160" y="584" width="64" height="64" shape-rendering="auto"><path fill="#000000" d="M0.85,0H0V0.85A0.85,0.85,0,0,1,0.85,0Z"/></svg><svg viewBox="0 0 4 4" x="1224" y="584" width="64" height="64" shape-rendering="auto"><path fill="#000000" d="M4,3.15V0.85A0.85,0.85,0,0,0,3.15,0H0.85A0.85,0.85,0,0,0,0,0.85V4H4Z"/></svg><svg viewBox="0 0 4 4" x="968" y="648" width="64" height="64" shape-rendering="auto"><rect fill="#000000" width="4" height="4"/></svg><svg viewBox="0 0 4 4" x="1224" y="648" width="64" height="64" shape-rendering="auto"><path fill="#000000" d="M0,3.15A0.85,0.85,0,0,0,0.85,4h2.3A0.85,0.85,0,0,0,4,3.15V0H0V3.15Z"/></svg><svg viewBox="0 0 4 4" x="200" y="712" width="64" height="64" shape-rendering="auto"><path fill="#000000" d="M3.15,0H0.85A0.85,0.85,0,0,0,0,0.85v2.3A0.85,0.85,0,0,0,0.85,4H4V0Z"/></svg><svg viewBox="0 0 4 4" x="264" y="712" width="64" height="64" shape-rendering="auto"><rect fill="#000000" width="4" height="4"/></svg><svg viewBox="0 0 4 4" x="328" y="712" width="64" height="64" shape-rendering="auto"><rect fill="#000000" width="4" height="4"/></svg><svg viewBox="0 0 4 4" x="392" y="712" width="64" height="64" shape-rendering="auto"><rect fill="#000000" width="4" height="4"/></svg><svg viewBox="0 0 4 4" x="456" y="712" width="64" height="64" shape-rendering="auto"><path fill="#000000" d="M3.15,0A0.85,0.85,0,0,1,4,0.85V4H0V0H3.15Z"/></svg><svg viewBox="0 0 4 4" x="520" y="712" width="64" height="64" shape-rendering="auto"><path fill="#000000" d="M0.85,4A0.85,0.85,0,0,1,0,3.15V4Z"/></svg><svg viewBox="0 0 4 4" x="584" y="712" width="64" height="64" shape-rendering="auto"><path fill="#000000" d="M3.15,0H0.85A0.85,0.85,0,0,0,0,0.85v2.3A0.85,0.85,0,0,0,0.85,4H4V0Z"/></svg><svg viewBox="0 0 4 4" x="648" y="712" width="64" height="64" shape-rendering="auto"><rect fill="#000000" width="4" height="4"/></svg><svg viewBox="0 0 4 4" x="712" y="712" width="64" height="64" shape-rendering="auto"><rect fill="#000000" width="4" height="4"/></svg><svg viewBox="0 0 4 4" x="776" y="712" width="64" height="64" shape-rendering="auto"><rect fill="#000000" width="4" height="4"/></svg><svg viewBox="0 0 4 4" x="840" y="712" width="64" height="64" shape-rendering="auto"><path fill="#000000" d="M0.85,4h2.3A0.85,0.85,0,0,0,4,3.15V0.85A0.85,0.85,0,0,0,3.15,0H0V4Z"/></svg><svg viewBox="0 0 4 4" x="968" y="712" width="64" height="64" shape-rendering="auto"><path fill="#000000" d="M0,3.15A0.85,0.85,0,0,0,0.85,4h2.3A0.85,0.85,0,0,0,4,3.15V0H0V3.15Z"/></svg><svg viewBox="0 0 4 4" x="1096" y="712" width="64" height="64" shape-rendering="auto"><path fill="#000000" d="M0.85,0A0.85,0.85,0,0,0,0,0.85V4H4V0H0.85Z"/></svg><svg viewBox="0 0 4 4" x="1160" y="712" width="64" height="64" shape-rendering="auto"><path fill="#000000" d="M3.15,0A0.85,0.85,0,0,1,4,0.85V4H0V0H3.15Z"/></svg><svg viewBox="0 0 4 4" x="1224" y="712" width="64" height="64" shape-rendering="auto"><path fill="#000000" d="M3.15,4A0.85,0.85,0,0,0,4,3.15V4Z"/></svg><svg viewBox="0 0 4 4" x="1224" y="712" width="64" height="64" shape-rendering="auto"><path fill="#000000" d="M0.85,4A0.85,0.85,0,0,1,0,3.15V4Z"/></svg><svg viewBox="0 0 4 4" x="1288" y="712" width="64" height="64" shape-rendering="auto"><path fill="#000000" d="M4,3.15V0.85A0.85,0.85,0,0,0,3.15,0H0.85A0.85,0.85,0,0,0,0,0.85V4H4Z"/></svg><svg viewBox="0 0 4 4" x="1416" y="712" width="64" height="64" shape-rendering="auto"><path fill="#000000" d="M4,3.15V0.85A0.85,0.85,0,0,0,3.15,0H0.85A0.85,0.85,0,0,0,0,0.85V4H4Z"/></svg><svg viewBox="0 0 4 4" x="1480" y="712" width="64" height="64" shape-rendering="auto"><path fill="#000000" d="M0.85,4A0.85,0.85,0,0,1,0,3.15V4Z"/></svg><svg viewBox="0 0 4 4" x="1544" y="712" width="64" height="64" shape-rendering="auto"><rect fill="#000000" width="4" height="4" rx="0.85"/></svg><svg viewBox="0 0 4 4" x="1672" y="712" width="64" height="64" shape-rendering="auto"><rect fill="#000000" width="4" height="4" rx="0.85"/></svg><svg viewBox="0 0 4 4" x="264" y="776" width="64" height="64" shape-rendering="auto"><path fill="#000000" d="M4,0.85V0H3.15A0.85,0.85,0,0,1,4,0.85Z"/></svg><svg viewBox="0 0 4 4" x="328" y="776" width="64" height="64" shape-rendering="auto"><path fill="#000000" d="M0,3.15A0.85,0.85,0,0,0,0.85,4h2.3A0.85,0.85,0,0,0,4,3.15V0H0V3.15Z"/></svg><svg viewBox="0 0 4 4" x="392" y="776" width="64" height="64" shape-rendering="auto"><path fill="#000000" d="M0.85,0H0V0.85A0.85,0.85,0,0,1,0.85,0Z"/></svg><svg viewBox="0 0 4 4" x="392" y="776" width="64" height="64" shape-rendering="auto"><path fill="#000000" d="M4,0.85V0H3.15A0.85,0.85,0,0,1,4,0.85Z"/></svg><svg viewBox="0 0 4 4" x="456" y="776" width="64" height="64" shape-rendering="auto"><path fill="#000000" d="M0,3.15A0.85,0.85,0,0,0,0.85,4H4V0H0V3.15Z"/></svg><svg viewBox="0 0 4 4" x="520" y="776" width="64" height="64" shape-rendering="auto"><path fill="#000000" d="M3.15,0A0.85,0.85,0,0,1,4,0.85V4H0V0H3.15Z"/></svg><svg viewBox="0 0 4 4" x="584" y="776" width="64" height="64" shape-rendering="auto"><path fill="#000000" d="M4,0.85V0H3.15A0.85,0.85,0,0,1,4,0.85Z"/></svg><svg viewBox="0 0 4 4" x="584" y="776" width="64" height="64" shape-rendering="auto"><path fill="#000000" d="M3.15,4A0.85,0.85,0,0,0,4,3.15V4Z"/></svg><svg viewBox="0 0 4 4" x="584" y="776" width="64" height="64" shape-rendering="auto"><path fill="#000000" d="M0.85,4A0.85,0.85,0,0,1,0,3.15V4Z"/></svg><svg viewBox="0 0 4 4" x="648" y="776" width="64" height="64" shape-rendering="auto"><rect fill="#000000" width="4" height="4"/></svg><svg viewBox="0 0 4 4" x="712" y="776" width="64" height="64" shape-rendering="auto"><path fill="#000000" d="M0.85,0H0V0.85A0.85,0.85,0,0,1,0.85,0Z"/></svg><svg viewBox="0 0 4 4" x="712" y="776" width="64" height="64" shape-rendering="auto"><path fill="#000000" d="M4,0.85V0H3.15A0.85,0.85,0,0,1,4,0.85Z"/></svg><svg viewBox="0 0 4 4" x="712" y="776" width="64" height="64" shape-rendering="auto"><path fill="#000000" d="M3.15,4A0.85,0.85,0,0,0,4,3.15V4Z"/></svg><svg viewBox="0 0 4 4" x="712" y="776" width="64" height="64" shape-rendering="auto"><path fill="#000000" d="M0.85,4A0.85,0.85,0,0,1,0,3.15V4Z"/></svg><svg viewBox="0 0 4 4" x="776" y="776" width="64" height="64" shape-rendering="auto"><rect fill="#000000" width="4" height="4"/></svg><svg viewBox="0 0 4 4" x="840" y="776" width="64" height="64" shape-rendering="auto"><path fill="#000000" d="M0.85,0H0V0.85A0.85,0.85,0,0,1,0.85,0Z"/></svg><svg viewBox="0 0 4 4" x="1096" y="776" width="64" height="64" shape-rendering="auto"><path fill="#000000" d="M0,3.15A0.85,0.85,0,0,0,0.85,4H4V0H0V3.15Z"/></svg><svg viewBox="0 0 4 4" x="1160" y="776" width="64" height="64" shape-rendering="auto"><rect fill="#000000" width="4" height="4"/></svg><svg viewBox="0 0 4 4" x="1224" y="776" width="64" height="64" shape-rendering="auto"><rect fill="#000000" width="4" height="4"/></svg><svg viewBox="0 0 4 4" x="1288" y="776" width="64" height="64" shape-rendering="auto"><rect fill="#000000" width="4" height="4"/></svg><svg viewBox="0 0 4 4" x="1352" y="776" width="64" height="64" shape-rendering="auto"><path fill="#000000" d="M0.85,4A0.85,0.85,0,0,1,0,3.15V4Z"/></svg><svg viewBox="0 0 4 4" x="1416" y="776" width="64" height="64" shape-rendering="auto"><path fill="#000000" d="M0,3.15A0.85,0.85,0,0,0,0.85,4H4V0H0V3.15Z"/></svg><svg viewBox="0 0 4 4" x="1480" y="776" width="64" height="64" shape-rendering="auto"><path fill="#000000" d="M3.15,0A0.85,0.85,0,0,1,4,0.85V4H0V0H3.15Z"/></svg><svg viewBox="0 0 4 4" x="1736" y="776" width="64" height="64" shape-rendering="auto"><rect fill="#000000" width="4" height="4" rx="0.85"/></svg><svg viewBox="0 0 4 4" x="200" y="840" width="64" height="64" shape-rendering="auto"><path fill="#000000" d="M4,3.15V0.85A0.85,0.85,0,0,0,3.15,0H0.85A0.85,0.85,0,0,0,0,0.85V4H4Z"/></svg><svg viewBox="0 0 4 4" x="328" y="840" width="64" height="64" shape-rendering="auto"><path fill="#000000" d="M3.15,4A0.85,0.85,0,0,0,4,3.15V4Z"/></svg><svg viewBox="0 0 4 4" x="392" y="840" width="64" height="64" shape-rendering="auto"><path fill="#000000" d="M4,3.15V0.85A0.85,0.85,0,0,0,3.15,0H0.85A0.85,0.85,0,0,0,0,0.85V4H4Z"/></svg><svg viewBox="0 0 4 4" x="456" y="840" width="64" height="64" shape-rendering="auto"><path fill="#000000" d="M4,0.85V0H3.15A0.85,0.85,0,0,1,4,0.85Z"/></svg><svg viewBox="0 0 4 4" x="520" y="840" width="64" height="64" shape-rendering="auto"><rect fill="#000000" width="4" height="4"/></svg><svg viewBox="0 0 4 4" x="584" y="840" width="64" height="64" shape-rendering="auto"><rect fill="#000000" width="4" height="4"/></svg><svg viewBox="0 0 4 4" x="648" y="840" width="64" height="64" shape-rendering="auto"><rect fill="#000000" width="4" height="4"/></svg><svg viewBox="0 0 4 4" x="712" y="840" width="64" height="64" shape-rendering="auto"><rect fill="#000000" width="4" height="4"/></svg><svg viewBox="0 0 4 4" x="776" y="840" width="64" height="64" shape-rendering="auto"><rect fill="#000000" width="4" height="4"/></svg><svg viewBox="0 0 4 4" x="840" y="840" width="64" height="64" shape-rendering="auto"><path fill="#000000" d="M3.15,4A0.85,0.85,0,0,0,4,3.15V4Z"/></svg><svg viewBox="0 0 4 4" x="840" y="840" width="64" height="64" shape-rendering="auto"><path fill="#000000" d="M0.85,4A0.85,0.85,0,0,1,0,3.15V4Z"/></svg><svg viewBox="0 0 4 4" x="904" y="840" width="64" height="64" shape-rendering="auto"><path fill="#000000" d="M0.85,0A0.85,0.85,0,0,0,0,0.85V4H4V0H0.85Z"/></svg><svg viewBox="0 0 4 4" x="968" y="840" width="64" height="64" shape-rendering="auto"><rect fill="#000000" width="4" height="4"/></svg><svg viewBox="0 0 4 4" x="1032" y="840" width="64" height="64" shape-rendering="auto"><path fill="#000000" d="M0.85,4h2.3A0.85,0.85,0,0,0,4,3.15V0.85A0.85,0.85,0,0,0,3.15,0H0V4Z"/></svg><svg viewBox="0 0 4 4" x="1096" y="840" width="64" height="64" shape-rendering="auto"><path fill="#000000" d="M4,0.85V0H3.15A0.85,0.85,0,0,1,4,0.85Z"/></svg><svg viewBox="0 0 4 4" x="1160" y="840" width="64" height="64" shape-rendering="auto"><path fill="#000000" d="M0,3.15A0.85,0.85,0,0,0,0.85,4h2.3A0.85,0.85,0,0,0,4,3.15V0H0V3.15Z"/></svg><svg viewBox="0 0 4 4" x="1224" y="840" width="64" height="64" shape-rendering="auto"><path fill="#000000" d="M0.85,0H0V0.85A0.85,0.85,0,0,1,0.85,0Z"/></svg><svg viewBox="0 0 4 4" x="1224" y="840" width="64" height="64" shape-rendering="auto"><path fill="#000000" d="M4,0.85V0H3.15A0.85,0.85,0,0,1,4,0.85Z"/></svg><svg viewBox="0 0 4 4" x="1224" y="840" width="64" height="64" shape-rendering="auto"><path fill="#000000" d="M3.15,4A0.85,0.85,0,0,0,4,3.15V4Z"/></svg><svg viewBox="0 0 4 4" x="1288" y="840" width="64" height="64" shape-rendering="auto"><rect fill="#000000" width="4" height="4"/></svg><svg viewBox="0 0 4 4" x="1352" y="840" width="64" height="64" shape-rendering="auto"><path fill="#000000" d="M0.85,4h2.3A0.85,0.85,0,0,0,4,3.15V0.85A0.85,0.85,0,0,0,3.15,0H0V4Z"/></svg><svg viewBox="0 0 4 4" x="1416" y="840" width="64" height="64" shape-rendering="auto"><path fill="#000000" d="M4,0.85V0H3.15A0.85,0.85,0,0,1,4,0.85Z"/></svg><svg viewBox="0 0 4 4" x="1480" y="840" width="64" height="64" shape-rendering="auto"><path fill="#000000" d="M0,3.15A0.85,0.85,0,0,0,0.85,4h2.3A0.85,0.85,0,0,0,4,3.15V0H0V3.15Z"/></svg><svg viewBox="0 0 4 4" x="1608" y="840" width="64" height="64" shape-rendering="auto"><rect fill="#000000" width="4" height="4" rx="0.85"/></svg><svg viewBox="0 0 4 4" x="200" y="904" width="64" height="64" shape-rendering="auto"><path fill="#000000" d="M0,3.15A0.85,0.85,0,0,0,0.85,4h2.3A0.85,0.85,0,0,0,4,3.15V0H0V3.15Z"/></svg><svg viewBox="0 0 4 4" x="328" y="904" width="64" height="64" shape-rendering="auto"><path fill="#000000" d="M3.15,0H0.85A0.85,0.85,0,0,0,0,0.85v2.3A0.85,0.85,0,0,0,0.85,4H4V0Z"/></svg><svg viewBox="0 0 4 4" x="392" y="904" width="64" height="64" shape-rendering="auto"><rect fill="#000000" width="4" height="4"/></svg><svg viewBox="0 0 4 4" x="456" y="904" width="64" height="64" shape-rendering="auto"><path fill="#000000" d="M3.15,4A0.85,0.85,0,0,0,4,3.15V4Z"/></svg><svg viewBox="0 0 4 4" x="456" y="904" width="64" height="64" shape-rendering="auto"><path fill="#000000" d="M0.85,4A0.85,0.85,0,0,1,0,3.15V4Z"/></svg><svg viewBox="0 0 4 4" x="520" y="904" width="64" height="64" shape-rendering="auto"><rect fill="#000000" width="4" height="4"/></svg><svg viewBox="0 0 4 4" x="584" y="904" width="64" height="64" shape-rendering="auto"><path fill="#000000" d="M0.85,0H0V0.85A0.85,0.85,0,0,1,0.85,0Z"/></svg><svg viewBox="0 0 4 4" x="584" y="904" width="64" height="64" shape-rendering="auto"><path fill="#000000" d="M0.85,4A0.85,0.85,0,0,1,0,3.15V4Z"/></svg><svg viewBox="0 0 4 4" x="712" y="904" width="64" height="64" shape-rendering="auto"><path fill="#000000" d="M4,0.85V0H3.15A0.85,0.85,0,0,1,4,0.85Z"/></svg><svg viewBox="0 0 4 4" x="776" y="904" width="64" height="64" shape-rendering="auto"><rect fill="#000000" width="4" height="4"/></svg><svg viewBox="0 0 4 4" x="840" y="904" width="64" height="64" shape-rendering="auto"><rect fill="#000000" width="4" height="4"/></svg><svg viewBox="0 0 4 4" x="904" y="904" width="64" height="64" shape-rendering="auto"><rect fill="#000000" width="4" height="4"/></svg><svg viewBox="0 0 4 4" x="968" y="904" width="64" height="64" shape-rendering="auto"><path fill="#000000" d="M0.85,0H0V0.85A0.85,0.85,0,0,1,0.85,0Z"/></svg><svg viewBox="0 0 4 4" x="1032" y="904" width="64" height="64" shape-rendering="auto"><path fill="#000000" d="M3.15,4A0.85,0.85,0,0,0,4,3.15V4Z"/></svg><svg viewBox="0 0 4 4" x="1096" y="904" width="64" height="64" shape-rendering="auto"><path fill="#000000" d="M4,3.15V0.85A0.85,0.85,0,0,0,3.15,0H0.85A0.85,0.85,0,0,0,0,0.85V4H4Z"/></svg><svg viewBox="0 0 4 4" x="1160" y="904" width="64" height="64" shape-rendering="auto"><path fill="#000000" d="M0.85,4A0.85,0.85,0,0,1,0,3.15V4Z"/></svg><svg viewBox="0 0 4 4" x="1224" y="904" width="64" height="64" shape-rendering="auto"><path fill="#000000" d="M3.15,0H0.85A0.85,0.85,0,0,0,0,0.85v2.3A0.85,0.85,0,0,0,0.85,4H4V0Z"/></svg><svg viewBox="0 0 4 4" x="1288" y="904" width="64" height="64" shape-rendering="auto"><path fill="#000000" d="M4,3.15A0.85,0.85,0,0,1,3.15,4H0V0H4V3.15Z"/></svg><svg viewBox="0 0 4 4" x="1352" y="904" width="64" height="64" shape-rendering="auto"><path fill="#000000" d="M0.85,0H0V0.85A0.85,0.85,0,0,1,0.85,0Z"/></svg><svg viewBox="0 0 4 4" x="328" y="968" width="64" height="64" shape-rendering="auto"><path fill="#000000" d="M4,0.85V0H3.15A0.85,0.85,0,0,1,4,0.85Z"/></svg><svg viewBox="0 0 4 4" x="392" y="968" width="64" height="64" shape-rendering="auto"><path fill="#000000" d="M0,3.15A0.85,0.85,0,0,0,0.85,4H4V0H0V3.15Z"/></svg><svg viewBox="0 0 4 4" x="456" y="968" width="64" height="64" shape-rendering="auto"><rect fill="#000000" width="4" height="4"/></svg><svg viewBox="0 0 4 4" x="520" y="968" width="64" height="64" shape-rendering="auto"><rect fill="#000000" width="4" height="4"/></svg><svg viewBox="0 0 4 4" x="584" y="968" width="64" height="64" shape-rendering="auto"><rect fill="#000000" width="4" height="4"/></svg><svg viewBox="0 0 4 4" x="648" y="968" width="64" height="64" shape-rendering="auto"><path fill="#000000" d="M3.15,0A0.85,0.85,0,0,1,4,0.85V4H0V0H3.15Z"/></svg><svg viewBox="0 0 4 4" x="776" y="968" width="64" height="64" shape-rendering="auto"><path fill="#000000" d="M0,3.15A0.85,0.85,0,0,0,0.85,4h2.3A0.85,0.85,0,0,0,4,3.15V0H0V3.15Z"/></svg><svg viewBox="0 0 4 4" x="840" y="968" width="64" height="64" shape-rendering="auto"><path fill="#000000" d="M0.85,0H0V0.85A0.85,0.85,0,0,1,0.85,0Z"/></svg><svg viewBox="0 0 4 4" x="840" y="968" width="64" height="64" shape-rendering="auto"><path fill="#000000" d="M4,0.85V0H3.15A0.85,0.85,0,0,1,4,0.85Z"/></svg><svg viewBox="0 0 4 4" x="904" y="968" width="64" height="64" shape-rendering="auto"><path fill="#000000" d="M0,3.15A0.85,0.85,0,0,0,0.85,4h2.3A0.85,0.85,0,0,0,4,3.15V0H0V3.15Z"/></svg><svg viewBox="0 0 4 4" x="1032" y="968" width="64" height="64" shape-rendering="auto"><path fill="#000000" d="M3.15,0H0.85A0.85,0.85,0,0,0,0,0.85v2.3A0.85,0.85,0,0,0,0.85,4H4V0Z"/></svg><svg viewBox="0 0 4 4" x="1096" y="968" width="64" height="64" shape-rendering="auto"><rect fill="#000000" width="4" height="4"/></svg><svg viewBox="0 0 4 4" x="1160" y="968" width="64" height="64" shape-rendering="auto"><path fill="#000000" d="M0.85,4h2.3A0.85,0.85,0,0,0,4,3.15V0.85A0.85,0.85,0,0,0,3.15,0H0V4Z"/></svg><svg viewBox="0 0 4 4" x="1288" y="968" width="64" height="64" shape-rendering="auto"><path fill="#000000" d="M3.15,4A0.85,0.85,0,0,0,4,3.15V4Z"/></svg><svg viewBox="0 0 4 4" x="1352" y="968" width="64" height="64" shape-rendering="auto"><path fill="#000000" d="M0.85,0A0.85,0.85,0,0,0,0,0.85V4H4V0H0.85Z"/></svg><svg viewBox="0 0 4 4" x="1416" y="968" width="64" height="64" shape-rendering="auto"><rect fill="#000000" width="4" height="4"/></svg><svg viewBox="0 0 4 4" x="1480" y="968" width="64" height="64" shape-rendering="auto"><rect fill="#000000" width="4" height="4"/></svg><svg viewBox="0 0 4 4" x="1544" y="968" width="64" height="64" shape-rendering="auto"><path fill="#000000" d="M0.85,4h2.3A0.85,0.85,0,0,0,4,3.15V0.85A0.85,0.85,0,0,0,3.15,0H0V4Z"/></svg><svg viewBox="0 0 4 4" x="1672" y="968" width="64" height="64" shape-rendering="auto"><path fill="#000000" d="M3.15,0H0.85A0.85,0.85,0,0,0,0,0.85v2.3A0.85,0.85,0,0,0,0.85,4H4V0Z"/></svg><svg viewBox="0 0 4 4" x="1736" y="968" width="64" height="64" shape-rendering="auto"><path fill="#000000" d="M0.85,4h2.3A0.85,0.85,0,0,0,4,3.15V0.85A0.85,0.85,0,0,0,3.15,0H0V4Z"/></svg><svg viewBox="0 0 4 4" x="200" y="1032" width="64" height="64" shape-rendering="auto"><path fill="#000000" d="M4,3.15V0.85A0.85,0.85,0,0,0,3.15,0H0.85A0.85,0.85,0,0,0,0,0.85V4H4Z"/></svg><svg viewBox="0 0 4 4" x="392" y="1032" width="64" height="64" shape-rendering="auto"><path fill="#000000" d="M4,0.85V0H3.15A0.85,0.85,0,0,1,4,0.85Z"/></svg><svg viewBox="0 0 4 4" x="392" y="1032" width="64" height="64" shape-rendering="auto"><path fill="#000000" d="M3.15,4A0.85,0.85,0,0,0,4,3.15V4Z"/></svg><svg viewBox="0 0 4 4" x="456" y="1032" width="64" height="64" shape-rendering="auto"><rect fill="#000000" width="4" height="4"/></svg><svg viewBox="0 0 4 4" x="520" y="1032" width="64" height="64" shape-rendering="auto"><rect fill="#000000" width="4" height="4"/></svg><svg viewBox="0 0 4 4" x="584" y="1032" width="64" height="64" shape-rendering="auto"><path fill="#000000" d="M0.85,0H0V0.85A0.85,0.85,0,0,1,0.85,0Z"/></svg><svg viewBox="0 0 4 4" x="584" y="1032" width="64" height="64" shape-rendering="auto"><path fill="#000000" d="M4,0.85V0H3.15A0.85,0.85,0,0,1,4,0.85Z"/></svg><svg viewBox="0 0 4 4" x="584" y="1032" width="64" height="64" shape-rendering="auto"><path fill="#000000" d="M0.85,4A0.85,0.85,0,0,1,0,3.15V4Z"/></svg><svg viewBox="0 0 4 4" x="648" y="1032" width="64" height="64" shape-rendering="auto"><path fill="#000000" d="M0,3.15A0.85,0.85,0,0,0,0.85,4h2.3A0.85,0.85,0,0,0,4,3.15V0H0V3.15Z"/></svg><svg viewBox="0 0 4 4" x="776" y="1032" width="64" height="64" shape-rendering="auto"><path fill="#000000" d="M3.15,4A0.85,0.85,0,0,0,4,3.15V4Z"/></svg><svg viewBox="0 0 4 4" x="840" y="1032" width="64" height="64" shape-rendering="auto"><path fill="#000000" d="M4,3.15V0.85A0.85,0.85,0,0,0,3.15,0H0.85A0.85,0.85,0,0,0,0,0.85V4H4Z"/></svg><svg viewBox="0 0 4 4" x="968" y="1032" width="64" height="64" shape-rendering="auto"><rect fill="#000000" width="4" height="4" rx="0.85"/></svg><svg viewBox="0 0 4 4" x="1032" y="1032" width="64" height="64" shape-rendering="auto"><path fill="#000000" d="M4,0.85V0H3.15A0.85,0.85,0,0,1,4,0.85Z"/></svg><svg viewBox="0 0 4 4" x="1096" y="1032" width="64" height="64" shape-rendering="auto"><rect fill="#000000" width="4" height="4"/></svg><svg viewBox="0 0 4 4" x="1160" y="1032" width="64" height="64" shape-rendering="auto"><path fill="#000000" d="M0.85,0H0V0.85A0.85,0.85,0,0,1,0.85,0Z"/></svg><svg viewBox="0 0 4 4" x="1224" y="1032" width="64" height="64" shape-rendering="auto"><path fill="#000000" d="M3.15,0H0.85A0.85,0.85,0,0,0,0,0.85v2.3A0.85,0.85,0,0,0,0.85,4H4V0Z"/></svg><svg viewBox="0 0 4 4" x="1288" y="1032" width="64" height="64" shape-rendering="auto"><rect fill="#000000" width="4" height="4"/></svg><svg viewBox="0 0 4 4" x="1352" y="1032" width="64" height="64" shape-rendering="auto"><rect fill="#000000" width="4" height="4"/></svg><svg viewBox="0 0 4 4" x="1416" y="1032" width="64" height="64" shape-rendering="auto"><rect fill="#000000" width="4" height="4"/></svg><svg viewBox="0 0 4 4" x="1480" y="1032" width="64" height="64" shape-rendering="auto"><rect fill="#000000" width="4" height="4"/></svg><svg viewBox="0 0 4 4" x="1544" y="1032" width="64" height="64" shape-rendering="auto"><path fill="#000000" d="M0.85,0H0V0.85A0.85,0.85,0,0,1,0.85,0Z"/></svg><svg viewBox="0 0 4 4" x="200" y="1096" width="64" height="64" shape-rendering="auto"><rect fill="#000000" width="4" height="4"/></svg><svg viewBox="0 0 4 4" x="328" y="1096" width="64" height="64" shape-rendering="auto"><path fill="#000000" d="M3.15,0H0.85A0.85,0.85,0,0,0,0,0.85v2.3A0.85,0.85,0,0,0,0.85,4H4V0Z"/></svg><svg viewBox="0 0 4 4" x="392" y="1096" width="64" height="64" shape-rendering="auto"><rect fill="#000000" width="4" height="4"/></svg><svg viewBox="0 0 4 4" x="456" y="1096" width="64" height="64" shape-rendering="auto"><rect fill="#000000" width="4" height="4"/></svg><svg viewBox="0 0 4 4" x="520" y="1096" width="64" height="64" shape-rendering="auto"><rect fill="#000000" width="4" height="4"/></svg><svg viewBox="0 0 4 4" x="584" y="1096" width="64" height="64" shape-rendering="auto"><path fill="#000000" d="M0.85,4h2.3A0.85,0.85,0,0,0,4,3.15V0.85A0.85,0.85,0,0,0,3.15,0H0V4Z"/></svg><svg viewBox="0 0 4 4" x="712" y="1096" width="64" height="64" shape-rendering="auto"><path fill="#000000" d="M3.15,4A0.85,0.85,0,0,0,4,3.15V4Z"/></svg><svg viewBox="0 0 4 4" x="776" y="1096" width="64" height="64" shape-rendering="auto"><path fill="#000000" d="M0.85,0A0.85,0.85,0,0,0,0,0.85V4H4V0H0.85Z"/></svg><svg viewBox="0 0 4 4" x="840" y="1096" width="64" height="64" shape-rendering="auto"><rect fill="#000000" width="4" height="4"/></svg><svg viewBox="0 0 4 4" x="1096" y="1096" width="64" height="64" shape-rendering="auto"><rect fill="#000000" width="4" height="4"/></svg><svg viewBox="0 0 4 4" x="1224" y="1096" width="64" height="64" shape-rendering="auto"><path fill="#000000" d="M4,0.85V0H3.15A0.85,0.85,0,0,1,4,0.85Z"/></svg><svg viewBox="0 0 4 4" x="1288" y="1096" width="64" height="64" shape-rendering="auto"><rect fill="#000000" width="4" height="4"/></svg><svg viewBox="0 0 4 4" x="1352" y="1096" width="64" height="64" shape-rendering="auto"><path fill="#000000" d="M4,3.15A0.85,0.85,0,0,1,3.15,4H0V0H4V3.15Z"/></svg><svg viewBox="0 0 4 4" x="1416" y="1096" width="64" height="64" shape-rendering="auto"><path fill="#000000" d="M0.85,0H0V0.85A0.85,0.85,0,0,1,0.85,0Z"/></svg><svg viewBox="0 0 4 4" x="1416" y="1096" width="64" height="64" shape-rendering="auto"><path fill="#000000" d="M4,0.85V0H3.15A0.85,0.85,0,0,1,4,0.85Z"/></svg><svg viewBox="0 0 4 4" x="1480" y="1096" width="64" height="64" shape-rendering="auto"><path fill="#000000" d="M0,3.15A0.85,0.85,0,0,0,0.85,4h2.3A0.85,0.85,0,0,0,4,3.15V0H0V3.15Z"/></svg><svg viewBox="0 0 4 4" x="1608" y="1096" width="64" height="64" shape-rendering="auto"><path fill="#000000" d="M3.15,0H0.85A0.85,0.85,0,0,0,0,0.85v2.3A0.85,0.85,0,0,0,0.85,4H4V0Z"/></svg><svg viewBox="0 0 4 4" x="1672" y="1096" width="64" height="64" shape-rendering="auto"><rect fill="#000000" width="4" height="4"/></svg><svg viewBox="0 0 4 4" x="1736" y="1096" width="64" height="64" shape-rendering="auto"><path fill="#000000" d="M3.15,0A0.85,0.85,0,0,1,4,0.85V4H0V0H3.15Z"/></svg><svg viewBox="0 0 4 4" x="200" y="1160" width="64" height="64" shape-rendering="auto"><rect fill="#000000" width="4" height="4"/></svg><svg viewBox="0 0 4 4" x="712" y="1160" width="64" height="64" shape-rendering="auto"><path fill="#000000" d="M3.15,0H0.85A0.85,0.85,0,0,0,0,0.85v2.3A0.85,0.85,0,0,0,0.85,4H4V0Z"/></svg><svg viewBox="0 0 4 4" x="776" y="1160" width="64" height="64" shape-rendering="auto"><rect fill="#000000" width="4" height="4"/></svg><svg viewBox="0 0 4 4" x="840" y="1160" width="64" height="64" shape-rendering="auto"><rect fill="#000000" width="4" height="4"/></svg><svg viewBox="0 0 4 4" x="968" y="1160" width="64" height="64" shape-rendering="auto"><path fill="#000000" d="M4,3.15V0.85A0.85,0.85,0,0,0,3.15,0H0.85A0.85,0.85,0,0,0,0,0.85V4H4Z"/></svg><svg viewBox="0 0 4 4" x="1096" y="1160" width="64" height="64" shape-rendering="auto"><rect fill="#000000" width="4" height="4"/></svg><svg viewBox="0 0 4 4" x="1160" y="1160" width="64" height="64" shape-rendering="auto"><path fill="#000000" d="M0.85,4A0.85,0.85,0,0,1,0,3.15V4Z"/></svg><svg viewBox="0 0 4 4" x="1224" y="1160" width="64" height="64" shape-rendering="auto"><path fill="#000000" d="M3.15,4A0.85,0.85,0,0,0,4,3.15V4Z"/></svg><svg viewBox="0 0 4 4" x="1288" y="1160" width="64" height="64" shape-rendering="auto"><rect fill="#000000" width="4" height="4"/></svg><svg viewBox="0 0 4 4" x="1352" y="1160" width="64" height="64" shape-rendering="auto"><path fill="#000000" d="M0.85,0H0V0.85A0.85,0.85,0,0,1,0.85,0Z"/></svg><svg viewBox="0 0 4 4" x="1352" y="1160" width="64" height="64" shape-rendering="auto"><path fill="#000000" d="M0.85,4A0.85,0.85,0,0,1,0,3.15V4Z"/></svg><svg viewBox="0 0 4 4" x="1608" y="1160" width="64" height="64" shape-rendering="auto"><path fill="#000000" d="M4,0.85V0H3.15A0.85,0.85,0,0,1,4,0.85Z"/></svg><svg viewBox="0 0 4 4" x="1672" y="1160" width="64" height="64" shape-rendering="auto"><path fill="#000000" d="M0,3.15A0.85,0.85,0,0,0,0.85,4H4V0H0V3.15Z"/></svg><svg viewBox="0 0 4 4" x="1736" y="1160" width="64" height="64" shape-rendering="auto"><rect fill="#000000" width="4" height="4"/></svg><svg viewBox="0 0 4 4" x="200" y="1224" width="64" height="64" shape-rendering="auto"><path fill="#000000" d="M0,3.15A0.85,0.85,0,0,0,0.85,4h2.3A0.85,0.85,0,0,0,4,3.15V0H0V3.15Z"/></svg><svg viewBox="0 0 4 4" x="328" y="1224" width="64" height="64" shape-rendering="auto"><path fill="#000000" d="M3.15,0H0.85A0.85,0.85,0,0,0,0,0.85v2.3A0.85,0.85,0,0,0,0.85,4H4V0Z"/></svg><svg viewBox="0 0 4 4" x="392" y="1224" width="64" height="64" shape-rendering="auto"><path fill="#000000" d="M0.85,4h2.3A0.85,0.85,0,0,0,4,3.15V0.85A0.85,0.85,0,0,0,3.15,0H0V4Z"/></svg><svg viewBox="0 0 4 4" x="520" y="1224" width="64" height="64" shape-rendering="auto"><path fill="#000000" d="M3.15,0H0.85A0.85,0.85,0,0,0,0,0.85v2.3A0.85,0.85,0,0,0,0.85,4H4V0Z"/></svg><svg viewBox="0 0 4 4" x="584" y="1224" width="64" height="64" shape-rendering="auto"><path fill="#000000" d="M0.85,4h2.3A0.85,0.85,0,0,0,4,3.15V0.85A0.85,0.85,0,0,0,3.15,0H0V4Z"/></svg><svg viewBox="0 0 4 4" x="776" y="1224" width="64" height="64" shape-rendering="auto"><path fill="#000000" d="M4,0.85V0H3.15A0.85,0.85,0,0,1,4,0.85Z"/></svg><svg viewBox="0 0 4 4" x="840" y="1224" width="64" height="64" shape-rendering="auto"><path fill="#000000" d="M0,3.15A0.85,0.85,0,0,0,0.85,4h2.3A0.85,0.85,0,0,0,4,3.15V0H0V3.15Z"/></svg><svg viewBox="0 0 4 4" x="968" y="1224" width="64" height="64" shape-rendering="auto"><path fill="#000000" d="M0,3.15A0.85,0.85,0,0,0,0.85,4h2.3A0.85,0.85,0,0,0,4,3.15V0H0V3.15Z"/></svg><svg viewBox="0 0 4 4" x="1096" y="1224" width="64" height="64" shape-rendering="auto"><path fill="#000000" d="M0,3.15A0.85,0.85,0,0,0,0.85,4H4V0H0V3.15Z"/></svg><svg viewBox="0 0 4 4" x="1160" y="1224" width="64" height="64" shape-rendering="auto"><rect fill="#000000" width="4" height="4"/></svg><svg viewBox="0 0 4 4" x="1224" y="1224" width="64" height="64" shape-rendering="auto"><rect fill="#000000" width="4" height="4"/></svg><svg viewBox="0 0 4 4" x="1288" y="1224" width="64" height="64" shape-rendering="auto"><rect fill="#000000" width="4" height="4"/></svg><svg viewBox="0 0 4 4" x="1352" y="1224" width="64" height="64" shape-rendering="auto"><rect fill="#000000" width="4" height="4"/></svg><svg viewBox="0 0 4 4" x="1416" y="1224" width="64" height="64" shape-rendering="auto"><rect fill="#000000" width="4" height="4"/></svg><svg viewBox="0 0 4 4" x="1480" y="1224" width="64" height="64" shape-rendering="auto"><rect fill="#000000" width="4" height="4"/></svg><svg viewBox="0 0 4 4" x="1544" y="1224" width="64" height="64" shape-rendering="auto"><path fill="#000000" d="M0.85,4h2.3A0.85,0.85,0,0,0,4,3.15V0.85A0.85,0.85,0,0,0,3.15,0H0V4Z"/></svg><svg viewBox="0 0 4 4" x="1672" y="1224" width="64" height="64" shape-rendering="auto"><path fill="#000000" d="M4,0.85V0H3.15A0.85,0.85,0,0,1,4,0.85Z"/></svg><svg viewBox="0 0 4 4" x="1736" y="1224" width="64" height="64" shape-rendering="auto"><rect fill="#000000" width="4" height="4"/></svg><svg viewBox="0 0 4 4" x="712" y="1288" width="64" height="64" shape-rendering="auto"><path fill="#000000" d="M4,3.15V0.85A0.85,0.85,0,0,0,3.15,0H0.85A0.85,0.85,0,0,0,0,0.85V4H4Z"/></svg><svg viewBox="0 0 4 4" x="776" y="1288" width="64" height="64" shape-rendering="auto"><path fill="#000000" d="M0.85,4A0.85,0.85,0,0,1,0,3.15V4Z"/></svg><svg viewBox="0 0 4 4" x="1160" y="1288" width="64" height="64" shape-rendering="auto"><path fill="#000000" d="M4,0.85V0H3.15A0.85,0.85,0,0,1,4,0.85Z"/></svg><svg viewBox="0 0 4 4" x="1224" y="1288" width="64" height="64" shape-rendering="auto"><rect fill="#000000" width="4" height="4"/></svg><svg viewBox="0 0 4 4" x="1288" y="1288" width="64" height="64" shape-rendering="auto"><path fill="#000000" d="M0.85,0H0V0.85A0.85,0.85,0,0,1,0.85,0Z"/></svg><svg viewBox="0 0 4 4" x="1416" y="1288" width="64" height="64" shape-rendering="auto"><path fill="#000000" d="M4,0.85V0H3.15A0.85,0.85,0,0,1,4,0.85Z"/></svg><svg viewBox="0 0 4 4" x="1480" y="1288" width="64" height="64" shape-rendering="auto"><rect fill="#000000" width="4" height="4"/></svg><svg viewBox="0 0 4 4" x="1544" y="1288" width="64" height="64" shape-rendering="auto"><path fill="#000000" d="M0.85,0H0V0.85A0.85,0.85,0,0,1,0.85,0Z"/></svg><svg viewBox="0 0 4 4" x="1672" y="1288" width="64" height="64" shape-rendering="auto"><path fill="#000000" d="M3.15,4A0.85,0.85,0,0,0,4,3.15V4Z"/></svg><svg viewBox="0 0 4 4" x="1736" y="1288" width="64" height="64" shape-rendering="auto"><rect fill="#000000" width="4" height="4"/></svg><svg viewBox="0 0 4 4" x="712" y="1352" width="64" height="64" shape-rendering="auto"><path fill="#000000" d="M0,3.15A0.85,0.85,0,0,0,0.85,4H4V0H0V3.15Z"/></svg><svg viewBox="0 0 4 4" x="776" y="1352" width="64" height="64" shape-rendering="auto"><path fill="#000000" d="M0.85,4h2.3A0.85,0.85,0,0,0,4,3.15V0.85A0.85,0.85,0,0,0,3.15,0H0V4Z"/></svg><svg viewBox="0 0 4 4" x="840" y="1352" width="64" height="64" shape-rendering="auto"><path fill="#000000" d="M3.15,4A0.85,0.85,0,0,0,4,3.15V4Z"/></svg><svg viewBox="0 0 4 4" x="904" y="1352" width="64" height="64" shape-rendering="auto"><path fill="#000000" d="M0.85,0A0.85,0.85,0,0,0,0,0.85V4H4V0H0.85Z"/></svg><svg viewBox="0 0 4 4" x="968" y="1352" width="64" height="64" shape-rendering="auto"><rect fill="#000000" width="4" height="4"/></svg><svg viewBox="0 0 4 4" x="1032" y="1352" width="64" height="64" shape-rendering="auto"><rect fill="#000000" width="4" height="4"/></svg><svg viewBox="0 0 4 4" x="1096" y="1352" width="64" height="64" shape-rendering="auto"><path fill="#000000" d="M0.85,4h2.3A0.85,0.85,0,0,0,4,3.15V0.85A0.85,0.85,0,0,0,3.15,0H0V4Z"/></svg><svg viewBox="0 0 4 4" x="1224" y="1352" width="64" height="64" shape-rendering="auto"><rect fill="#000000" width="4" height="4"/></svg><svg viewBox="0 0 4 4" x="1352" y="1352" width="64" height="64" shape-rendering="auto"><rect fill="#000000" width="4" height="4" rx="0.85"/></svg><svg viewBox="0 0 4 4" x="1480" y="1352" width="64" height="64" shape-rendering="auto"><rect fill="#000000" width="4" height="4"/></svg><svg viewBox="0 0 4 4" x="1544" y="1352" width="64" height="64" shape-rendering="auto"><path fill="#000000" d="M0.85,4A0.85,0.85,0,0,1,0,3.15V4Z"/></svg><svg viewBox="0 0 4 4" x="1608" y="1352" width="64" height="64" shape-rendering="auto"><path fill="#000000" d="M3.15,0H0.85A0.85,0.85,0,0,0,0,0.85v2.3A0.85,0.85,0,0,0,0.85,4H4V0Z"/></svg><svg viewBox="0 0 4 4" x="1672" y="1352" width="64" height="64" shape-rendering="auto"><rect fill="#000000" width="4" height="4"/></svg><svg viewBox="0 0 4 4" x="1736" y="1352" width="64" height="64" shape-rendering="auto"><path fill="#000000" d="M4,3.15A0.85,0.85,0,0,1,3.15,4H0V0H4V3.15Z"/></svg><svg viewBox="0 0 4 4" x="776" y="1416" width="64" height="64" shape-rendering="auto"><path fill="#000000" d="M3.15,4A0.85,0.85,0,0,0,4,3.15V4Z"/></svg><svg viewBox="0 0 4 4" x="840" y="1416" width="64" height="64" shape-rendering="auto"><path fill="#000000" d="M0.85,0A0.85,0.85,0,0,0,0,0.85V4H4V0H0.85Z"/></svg><svg viewBox="0 0 4 4" x="904" y="1416" width="64" height="64" shape-rendering="auto"><rect fill="#000000" width="4" height="4"/></svg><svg viewBox="0 0 4 4" x="968" y="1416" width="64" height="64" shape-rendering="auto"><path fill="#000000" d="M0.85,0H0V0.85A0.85,0.85,0,0,1,0.85,0Z"/></svg><svg viewBox="0 0 4 4" x="968" y="1416" width="64" height="64" shape-rendering="auto"><path fill="#000000" d="M0.85,4A0.85,0.85,0,0,1,0,3.15V4Z"/></svg><svg viewBox="0 0 4 4" x="1224" y="1416" width="64" height="64" shape-rendering="auto"><rect fill="#000000" width="4" height="4"/></svg><svg viewBox="0 0 4 4" x="1288" y="1416" width="64" height="64" shape-rendering="auto"><path fill="#000000" d="M0.85,4A0.85,0.85,0,0,1,0,3.15V4Z"/></svg><svg viewBox="0 0 4 4" x="1416" y="1416" width="64" height="64" shape-rendering="auto"><path fill="#000000" d="M3.15,4A0.85,0.85,0,0,0,4,3.15V4Z"/></svg><svg viewBox="0 0 4 4" x="1480" y="1416" width="64" height="64" shape-rendering="auto"><rect fill="#000000" width="4" height="4"/></svg><svg viewBox="0 0 4 4" x="1544" y="1416" width="64" height="64" shape-rendering="auto"><path fill="#000000" d="M3.15,0A0.85,0.85,0,0,1,4,0.85V4H0V0H3.15Z"/></svg><svg viewBox="0 0 4 4" x="712" y="1480" width="64" height="64" shape-rendering="auto"><path fill="#000000" d="M0.85,0A0.85,0.85,0,0,0,0,0.85V4H4V0H0.85Z"/></svg><svg viewBox="0 0 4 4" x="776" y="1480" width="64" height="64" shape-rendering="auto"><rect fill="#000000" width="4" height="4"/></svg><svg viewBox="0 0 4 4" x="840" y="1480" width="64" height="64" shape-rendering="auto"><rect fill="#000000" width="4" height="4"/></svg><svg viewBox="0 0 4 4" x="904" y="1480" width="64" height="64" shape-rendering="auto"><rect fill="#000000" width="4" height="4"/></svg><svg viewBox="0 0 4 4" x="968" y="1480" width="64" height="64" shape-rendering="auto"><rect fill="#000000" width="4" height="4"/></svg><svg viewBox="0 0 4 4" x="1032" y="1480" width="64" height="64" shape-rendering="auto"><rect fill="#000000" width="4" height="4"/></svg><svg viewBox="0 0 4 4" x="1096" y="1480" width="64" height="64" shape-rendering="auto"><path fill="#000000" d="M0.85,4h2.3A0.85,0.85,0,0,0,4,3.15V0.85A0.85,0.85,0,0,0,3.15,0H0V4Z"/></svg><svg viewBox="0 0 4 4" x="1160" y="1480" width="64" height="64" shape-rendering="auto"><path fill="#000000" d="M3.15,4A0.85,0.85,0,0,0,4,3.15V4Z"/></svg><svg viewBox="0 0 4 4" x="1224" y="1480" width="64" height="64" shape-rendering="auto"><rect fill="#000000" width="4" height="4"/></svg><svg viewBox="0 0 4 4" x="1288" y="1480" width="64" height="64" shape-rendering="auto"><rect fill="#000000" width="4" height="4"/></svg><svg viewBox="0 0 4 4" x="1352" y="1480" width="64" height="64" shape-rendering="auto"><rect fill="#000000" width="4" height="4"/></svg><svg viewBox="0 0 4 4" x="1416" y="1480" width="64" height="64" shape-rendering="auto"><rect fill="#000000" width="4" height="4"/></svg><svg viewBox="0 0 4 4" x="1480" y="1480" width="64" height="64" shape-rendering="auto"><rect fill="#000000" width="4" height="4"/></svg><svg viewBox="0 0 4 4" x="1544" y="1480" width="64" height="64" shape-rendering="auto"><path fill="#000000" d="M4,3.15A0.85,0.85,0,0,1,3.15,4H0V0H4V3.15Z"/></svg><svg viewBox="0 0 4 4" x="712" y="1544" width="64" height="64" shape-rendering="auto"><rect fill="#000000" width="4" height="4"/></svg><svg viewBox="0 0 4 4" x="776" y="1544" width="64" height="64" shape-rendering="auto"><rect fill="#000000" width="4" height="4"/></svg><svg viewBox="0 0 4 4" x="840" y="1544" width="64" height="64" shape-rendering="auto"><path fill="#000000" d="M0.85,0H0V0.85A0.85,0.85,0,0,1,0.85,0Z"/></svg><svg viewBox="0 0 4 4" x="904" y="1544" width="64" height="64" shape-rendering="auto"><path fill="#000000" d="M4,0.85V0H3.15A0.85,0.85,0,0,1,4,0.85Z"/></svg><svg viewBox="0 0 4 4" x="968" y="1544" width="64" height="64" shape-rendering="auto"><rect fill="#000000" width="4" height="4"/></svg><svg viewBox="0 0 4 4" x="1032" y="1544" width="64" height="64" shape-rendering="auto"><path fill="#000000" d="M0.85,0H0V0.85A0.85,0.85,0,0,1,0.85,0Z"/></svg><svg viewBox="0 0 4 4" x="1160" y="1544" width="64" height="64" shape-rendering="auto"><path fill="#000000" d="M3.15,0H0.85A0.85,0.85,0,0,0,0,0.85v2.3A0.85,0.85,0,0,0,0.85,4H4V0Z"/></svg><svg viewBox="0 0 4 4" x="1224" y="1544" width="64" height="64" shape-rendering="auto"><path fill="#000000" d="M4,3.15A0.85,0.85,0,0,1,3.15,4H0V0H4V3.15Z"/></svg><svg viewBox="0 0 4 4" x="1288" y="1544" width="64" height="64" shape-rendering="auto"><path fill="#000000" d="M0.85,0H0V0.85A0.85,0.85,0,0,1,0.85,0Z"/></svg><svg viewBox="0 0 4 4" x="1288" y="1544" width="64" height="64" shape-rendering="auto"><path fill="#000000" d="M4,0.85V0H3.15A0.85,0.85,0,0,1,4,0.85Z"/></svg><svg viewBox="0 0 4 4" x="1352" y="1544" width="64" height="64" shape-rendering="auto"><path fill="#000000" d="M0,3.15A0.85,0.85,0,0,0,0.85,4h2.3A0.85,0.85,0,0,0,4,3.15V0H0V3.15Z"/></svg><svg viewBox="0 0 4 4" x="1416" y="1544" width="64" height="64" shape-rendering="auto"><path fill="#000000" d="M0.85,0H0V0.85A0.85,0.85,0,0,1,0.85,0Z"/></svg><svg viewBox="0 0 4 4" x="1416" y="1544" width="64" height="64" shape-rendering="auto"><path fill="#000000" d="M4,0.85V0H3.15A0.85,0.85,0,0,1,4,0.85Z"/></svg><svg viewBox="0 0 4 4" x="1480" y="1544" width="64" height="64" shape-rendering="auto"><rect fill="#000000" width="4" height="4"/></svg><svg viewBox="0 0 4 4" x="1544" y="1544" width="64" height="64" shape-rendering="auto"><path fill="#000000" d="M0.85,0H0V0.85A0.85,0.85,0,0,1,0.85,0Z"/></svg><svg viewBox="0 0 4 4" x="1672" y="1544" width="64" height="64" shape-rendering="auto"><path fill="#000000" d="M3.15,0H0.85A0.85,0.85,0,0,0,0,0.85v2.3A0.85,0.85,0,0,0,0.85,4H4V0Z"/></svg><svg viewBox="0 0 4 4" x="1736" y="1544" width="64" height="64" shape-rendering="auto"><path fill="#000000" d="M3.15,0A0.85,0.85,0,0,1,4,0.85V4H0V0H3.15Z"/></svg><svg viewBox="0 0 4 4" x="712" y="1608" width="64" height="64" shape-rendering="auto"><rect fill="#000000" width="4" height="4"/></svg><svg viewBox="0 0 4 4" x="776" y="1608" width="64" height="64" shape-rendering="auto"><path fill="#000000" d="M4,3.15A0.85,0.85,0,0,1,3.15,4H0V0H4V3.15Z"/></svg><svg viewBox="0 0 4 4" x="968" y="1608" width="64" height="64" shape-rendering="auto"><rect fill="#000000" width="4" height="4"/></svg><svg viewBox="0 0 4 4" x="1032" y="1608" width="64" height="64" shape-rendering="auto"><path fill="#000000" d="M0.85,4A0.85,0.85,0,0,1,0,3.15V4Z"/></svg><svg viewBox="0 0 4 4" x="1096" y="1608" width="64" height="64" shape-rendering="auto"><rect fill="#000000" width="4" height="4" rx="0.85"/></svg><svg viewBox="0 0 4 4" x="1416" y="1608" width="64" height="64" shape-rendering="auto"><path fill="#000000" d="M3.15,4A0.85,0.85,0,0,0,4,3.15V4Z"/></svg><svg viewBox="0 0 4 4" x="1480" y="1608" width="64" height="64" shape-rendering="auto"><rect fill="#000000" width="4" height="4"/></svg><svg viewBox="0 0 4 4" x="1544" y="1608" width="64" height="64" shape-rendering="auto"><path fill="#000000" d="M0.85,4A0.85,0.85,0,0,1,0,3.15V4Z"/></svg><svg viewBox="0 0 4 4" x="1608" y="1608" width="64" height="64" shape-rendering="auto"><rect fill="#000000" width="4" height="4" rx="0.85"/></svg><svg viewBox="0 0 4 4" x="1672" y="1608" width="64" height="64" shape-rendering="auto"><path fill="#000000" d="M4,0.85V0H3.15A0.85,0.85,0,0,1,4,0.85Z"/></svg><svg viewBox="0 0 4 4" x="1736" y="1608" width="64" height="64" shape-rendering="auto"><path fill="#000000" d="M0,3.15A0.85,0.85,0,0,0,0.85,4h2.3A0.85,0.85,0,0,0,4,3.15V0H0V3.15Z"/></svg><svg viewBox="0 0 4 4" x="712" y="1672" width="64" height="64" shape-rendering="auto"><rect fill="#000000" width="4" height="4"/></svg><svg viewBox="0 0 4 4" x="776" y="1672" width="64" height="64" shape-rendering="auto"><path fill="#000000" d="M0.85,0H0V0.85A0.85,0.85,0,0,1,0.85,0Z"/></svg><svg viewBox="0 0 4 4" x="840" y="1672" width="64" height="64" shape-rendering="auto"><rect fill="#000000" width="4" height="4" rx="0.85"/></svg><svg viewBox="0 0 4 4" x="968" y="1672" width="64" height="64" shape-rendering="auto"><path fill="#000000" d="M0,3.15A0.85,0.85,0,0,0,0.85,4H4V0H0V3.15Z"/></svg><svg viewBox="0 0 4 4" x="1032" y="1672" width="64" height="64" shape-rendering="auto"><path fill="#000000" d="M0.85,4h2.3A0.85,0.85,0,0,0,4,3.15V0.85A0.85,0.85,0,0,0,3.15,0H0V4Z"/></svg><svg viewBox="0 0 4 4" x="1224" y="1672" width="64" height="64" shape-rendering="auto"><path fill="#000000" d="M3.15,0H0.85A0.85,0.85,0,0,0,0,0.85v2.3A0.85,0.85,0,0,0,0.85,4H4V0Z"/></svg><svg viewBox="0 0 4 4" x="1288" y="1672" width="64" height="64" shape-rendering="auto"><rect fill="#000000" width="4" height="4"/></svg><svg viewBox="0 0 4 4" x="1352" y="1672" width="64" height="64" shape-rendering="auto"><rect fill="#000000" width="4" height="4"/></svg><svg viewBox="0 0 4 4" x="1416" y="1672" width="64" height="64" shape-rendering="auto"><rect fill="#000000" width="4" height="4"/></svg><svg viewBox="0 0 4 4" x="1480" y="1672" width="64" height="64" shape-rendering="auto"><rect fill="#000000" width="4" height="4"/></svg><svg viewBox="0 0 4 4" x="1544" y="1672" width="64" height="64" shape-rendering="auto"><path fill="#000000" d="M0.85,4h2.3A0.85,0.85,0,0,0,4,3.15V0.85A0.85,0.85,0,0,0,3.15,0H0V4Z"/></svg><svg viewBox="0 0 4 4" x="1608" y="1672" width="64" height="64" shape-rendering="auto"><path fill="#000000" d="M3.15,4A0.85,0.85,0,0,0,4,3.15V4Z"/></svg><svg viewBox="0 0 4 4" x="1672" y="1672" width="64" height="64" shape-rendering="auto"><path fill="#000000" d="M4,3.15V0.85A0.85,0.85,0,0,0,3.15,0H0.85A0.85,0.85,0,0,0,0,0.85V4H4Z"/></svg><svg viewBox="0 0 4 4" x="1736" y="1672" width="64" height="64" shape-rendering="auto"><path fill="#000000" d="M0.85,4A0.85,0.85,0,0,1,0,3.15V4Z"/></svg><svg viewBox="0 0 4 4" x="712" y="1736" width="64" height="64" shape-rendering="auto"><path fill="#000000" d="M0,3.15A0.85,0.85,0,0,0,0.85,4h2.3A0.85,0.85,0,0,0,4,3.15V0H0V3.15Z"/></svg><svg viewBox="0 0 4 4" x="1096" y="1736" width="64" height="64" shape-rendering="auto"><path fill="#000000" d="M3.15,0H0.85A0.85,0.85,0,0,0,0,0.85v2.3A0.85,0.85,0,0,0,0.85,4H4V0Z"/></svg><svg viewBox="0 0 4 4" x="1160" y="1736" width="64" height="64" shape-rendering="auto"><path fill="#000000" d="M0.85,4h2.3A0.85,0.85,0,0,0,4,3.15V0.85A0.85,0.85,0,0,0,3.15,0H0V4Z"/></svg><svg viewBox="0 0 4 4" x="1608" y="1736" width="64" height="64" shape-rendering="auto"><path fill="#000000" d="M3.15,0H0.85A0.85,0.85,0,0,0,0,0.85v2.3A0.85,0.85,0,0,0,0.85,4H4V0Z"/></svg><svg viewBox="0 0 4 4" x="1672" y="1736" width="64" height="64" shape-rendering="auto"><rect fill="#000000" width="4" height="4"/></svg><svg viewBox="0 0 4 4" x="1736" y="1736" width="64" height="64" shape-rendering="auto"><path fill="#000000" d="M0.85,4h2.3A0.85,0.85,0,0,0,4,3.15V0.85A0.85,0.85,0,0,0,3.15,0H0V4Z"/></svg><svg version="1.1" id="Ebene_1" x="200" y="200" viewBox="0 0 700 700" style="enable-background:new 0 0 700 700;" xml:space="preserve" width="448" height="448" shape-rendering="auto">

<path fill="#000000" d="M21.2-0.1C9.5-0.1-0.1,9.5-0.1,21.2v78.8v100v100v100v100v100v78.8c0,11.7,9.5,21.3,21.3,21.3h657.6  c11.7,0,21.3-9.5,21.3-21.3V600V500V400V300V200v-100V21.2c0-11.7-9.5-21.3-21.3-21.3H21.2z M600,200v100v100v100v87.8  c0,6.8-5.5,12.2-12.2,12.2H112.2c-6.8,0-12.2-5.5-12.2-12.2V500V400V300V200v-87.8c0-6.8,5.5-12.2,12.2-12.2h475.6  c6.8,0,12.2,5.5,12.2,12.2V200z"/>
</svg>
<svg version="1.1" id="Ebene_1" x="200" y="200" viewBox="0 0 700 700" style="enable-background:new 0 0 700 700;" xml:space="preserve" width="448" height="448" shape-rendering="auto">

<path fill="#000000" d="M500,400V300v-78.8c0-11.7-9.5-21.3-21.3-21.3H221.2c-11.7,0-21.3,9.5-21.3,21.3V300v100v78.8    c0,11.7,9.5,21.3,21.3,21.3h257.5c11.7,0,21.3-9.5,21.3-21.3V400z"/>
</svg>
<svg version="1.1" id="Ebene_1" x="1352" y="200" viewBox="0 0 700 700" style="enable-background:new 0 0 700 700;" xml:space="preserve" width="448" height="448" shape-rendering="auto">

<path fill="#000000" d="M21.2-0.1C9.5-0.1-0.1,9.5-0.1,21.2v78.8v100v100v100v100v100v78.8c0,11.7,9.5,21.3,21.3,21.3h657.6  c11.7,0,21.3-9.5,21.3-21.3V600V500V400V300V200v-100V21.2c0-11.7-9.5-21.3-21.3-21.3H21.2z M600,200v100v100v100v87.8  c0,6.8-5.5,12.2-12.2,12.2H112.2c-6.8,0-12.2-5.5-12.2-12.2V500V400V300V200v-87.8c0-6.8,5.5-12.2,12.2-12.2h475.6  c6.8,0,12.2,5.5,12.2,12.2V200z"/>
</svg>
<svg version="1.1" id="Ebene_1" x="1352" y="200" viewBox="0 0 700 700" style="enable-background:new 0 0 700 700;" xml:space="preserve" width="448" height="448" shape-rendering="auto">

<path fill="#000000" d="M500,400V300v-78.8c0-11.7-9.5-21.3-21.3-21.3H221.2c-11.7,0-21.3,9.5-21.3,21.3V300v100v78.8    c0,11.7,9.5,21.3,21.3,21.3h257.5c11.7,0,21.3-9.5,21.3-21.3V400z"/>
</svg>
<svg version="1.1" id="Ebene_1" x="200" y="1352" viewBox="0 0 700 700" style="enable-background:new 0 0 700 700;" xml:space="preserve" width="448" height="448" shape-rendering="auto">

<path fill="#000000" d="M21.2-0.1C9.5-0.1-0.1,9.5-0.1,21.2v78.8v100v100v100v100v100v78.8c0,11.7,9.5,21.3,21.3,21.3h657.6  c11.7,0,21.3-9.5,21.3-21.3V600V500V400V300V200v-100V21.2c0-11.7-9.5-21.3-21.3-21.3H21.2z M600,200v100v100v100v87.8  c0,6.8-5.5,12.2-12.2,12.2H112.2c-6.8,0-12.2-5.5-12.2-12.2V500V400V300V200v-87.8c0-6.8,5.5-12.2,12.2-12.2h475.6  c6.8,0,12.2,5.5,12.2,12.2V200z"/>
</svg>
<svg version="1.1" id="Ebene_1" x="200" y="1352" viewBox="0 0 700 700" style="enable-background:new 0 0 700 700;" xml:space="preserve" width="448" height="448" shape-rendering="auto">

<path fill="#000000" d="M500,400V300v-78.8c0-11.7-9.5-21.3-21.3-21.3H221.2c-11.7,0-21.3,9.5-21.3,21.3V300v100v78.8    c0,11.7,9.5,21.3,21.3,21.3h257.5c11.7,0,21.3-9.5,21.3-21.3V400z"/>
</svg>
</svg>

<path id="FrameBody" class="frame-color" d="M13.7,346.6h251.7c7.6,0,13.7-6.2,13.7-13.7V13.7c0-7.6-6.2-13.7-13.7-13.7H13.8C6.2,0,0.1,6.2,0,13.7
	v319.2C0,340.5,6.2,346.6,13.7,346.6z M10.6,17.9c0-4.1,3.3-7.4,7.4-7.4h243.2c4.1,0,7.4,3.3,7.4,7.4v243.3c0,4.1-3.3,7.4-7.4,7.4
	H18c-4.1,0-7.4-3.3-7.4-7.4V17.9z"/>
<svg id="TextArea" x="10" y="275" width="260" height="70" viewBox="0 0 89.03125 17.588541666667" preserveAspectRatio="xMidYMid meet">
<svg version="1.1" xmlns="http://www.w3.org/2000/svg"><path class="text-color" fill="#FFFFFF" d=" M4.91455078125,13.19140625l-0.98828125,0l0-7.8525390625l4.38818359375,0l0,0.8701171875l-3.39990234375,0l0,2.7822265625l3.1904296875,0l0,0.86474609375l-3.1904296875,0l0,3.33544921875z M13.14306640625,13.19140625l-0.18798828125-0.837890625l-0.04296875,0q-0.4404296875,0.55322265625-0.878173828125,0.749267578125t-1.103759765625,0.196044921875q-0.8701171875,0-1.3642578125-0.45654296875t-0.494140625-1.2890625q0-1.7939453125,2.83056640625-1.8798828125l0.9990234375-0.03759765625l0-0.34912109375q0-0.67138671875-0.2900390625-0.990966796875t-0.92919921875-0.319580078125q-0.46728515625,0-0.883544921875,0.1396484375t-0.781494140625,0.3115234375l-0.29541015625-0.72509765625q0.44580078125-0.236328125,0.97216796875-0.37060546875t1.0419921875-0.13427734375q1.06884765625,0,1.58984375,0.47265625t0.52099609375,1.50390625l0,4.017578125l-0.70361328125,0z M11.150390625,12.52001953125q0.81103515625,0,1.275634765625-0.437744140625t0.464599609375-1.243408203125l0-0.53173828125l-0.8701171875,0.03759765625q-1.01513671875,0.03759765625-1.479736328125,0.322265625t-0.464599609375,0.89697265625q0,0.4619140625,0.281982421875,0.708984375t0.792236328125,0.2470703125z M18.0361328125,13.298828125q-1.27294921875,0-1.98193359375-0.781494140625t-0.708984375-2.242431640625q0-1.482421875,0.717041015625-2.285400390625t2.043701171875-0.802978515625q0.4296875,0,0.851318359375,0.088623046875t0.695556640625,0.228271484375l-0.29541015625,0.8056640625q-0.74658203125-0.279296875-1.27294921875-0.279296875q-0.8916015625,0-1.31591796875,0.561279296875t-0.42431640625,1.673095703125q0,1.06884765625,0.42431640625,1.635498046875t1.2568359375,0.566650390625q0.77880859375,0,1.53076171875-0.34375l0,0.859375q-0.6123046875,0.31689453125-1.52001953125,0.31689453125z M18.8525390625,14.72216796875q0,0.53173828125-0.405517578125,0.82177734375t-1.221923828125,0.2900390625q-0.34912109375,0-0.5478515625-0.05908203125l0-0.6015625q0.193359375,0.0537109375,0.580078125,0.0537109375q0.40283203125,0,0.609619140625-0.104736328125t0.206787109375-0.378662109375q0-0.47802734375-1.00439453125-0.60693359375l0.47265625-0.9453125l0.63916015625,0l-0.28466796875,0.58544921875q0.9560546875,0.2041015625,0.9560546875,0.9453125z M24.59423828125,13.19140625l-0.18798828125-0.837890625l-0.04296875,0q-0.4404296875,0.55322265625-0.878173828125,0.749267578125t-1.103759765625,0.196044921875q-0.8701171875,0-1.3642578125-0.45654296875t-0.494140625-1.2890625q0-1.7939453125,2.83056640625-1.8798828125l0.9990234375-0.03759765625l0-0.34912109375q0-0.67138671875-0.2900390625-0.990966796875t-0.92919921875-0.319580078125q-0.46728515625,0-0.883544921875,0.1396484375t-0.781494140625,0.3115234375l-0.29541015625-0.72509765625q0.44580078125-0.236328125,0.97216796875-0.37060546875t1.0419921875-0.13427734375q1.06884765625,0,1.58984375,0.47265625t0.52099609375,1.50390625l0,4.017578125l-0.70361328125,0z M22.6015625,12.52001953125q0.81103515625,0,1.275634765625-0.437744140625t0.464599609375-1.243408203125l0-0.53173828125l-0.8701171875,0.03759765625q-1.01513671875,0.03759765625-1.479736328125,0.322265625t-0.464599609375,0.89697265625q0,0.4619140625,0.281982421875,0.708984375t0.792236328125,0.2470703125z  M33.82177734375,11.56396484375q0,0.8271484375-0.61767578125,1.281005859375t-1.73486328125,0.453857421875q-1.16552734375,0-1.85302734375-0.37060546875l0-0.880859375q0.97216796875,0.47265625,1.87451171875,0.47265625q0.73046875,0,1.0634765625-0.236328125t0.3330078125-0.6337890625q0-0.34912109375-0.319580078125-0.5908203125t-1.135986328125-0.55322265625q-0.83251953125-0.322265625-1.1708984375-0.550537109375t-0.496826171875-0.512939453125t-0.158447265625-0.69287109375q0-0.72509765625,0.5908203125-1.14404296875t1.6220703125-0.4189453125q1.00439453125,0,1.8798828125,0.3974609375l-0.32763671875,0.76806640625q-0.89697265625-0.3759765625-1.61669921875-0.3759765625q-0.6015625,0-0.9130859375,0.190673828125t-0.3115234375,0.523681640625q0,0.322265625,0.2685546875,0.534423828125t1.25146484375,0.588134765625q0.73583984375,0.27392578125,1.087646484375,0.51025390625t0.518310546875,0.53173828125t0.16650390625,0.708984375z M37.7587890625,13.298828125q-1.32666015625,0-2.081298828125-0.802978515625t-0.754638671875-2.210205078125q0-1.41796875,0.70361328125-2.258544921875t1.9013671875-0.840576171875q1.11181640625,0,1.7724609375,0.717041015625t0.66064453125,1.941650390625l0,0.58544921875l-4.0390625,0q0.02685546875,1.00439453125,0.51025390625,1.525390625t1.36962890625,0.52099609375q0.47265625,0,0.89697265625-0.083251953125t0.99365234375-0.324951171875l0,0.8486328125q-0.48876953125,0.20947265625-0.91845703125,0.29541015625t-1.01513671875,0.0859375z M37.51708984375,7.97607421875q-0.69287109375,0-1.095703125,0.44580078125t-0.47802734375,1.24072265625l3.00244140625,0q-0.0107421875-0.8271484375-0.38134765625-1.2568359375t-1.04736328125-0.4296875z M42.3671875,7.2939453125l0,3.79736328125q0,0.71435546875,0.319580078125,1.060791015625t0.990966796875,0.346435546875q0.90771484375,0,1.3212890625-0.5048828125t0.41357421875-1.62744140625l0-3.072265625l0.97216796875,0l0,5.8974609375l-0.794921875,0l-0.1396484375-0.77880859375l-0.04833984375,0q-0.26318359375,0.42431640625-0.74658203125,0.6552734375t-1.12255859375,0.23095703125q-1.0634765625,0-1.603271484375-0.51025390625t-0.539794921875-1.6328125l0-3.86181640625l0.9775390625,0z  M53.904296875,13.298828125q-1.18701171875,0-1.826171875-0.85400390625l-0.064453125,0l0.021484375,0.22021484375q0.04296875,0.4189453125,0.04296875,0.74658203125l0,2.42236328125l-0.966796875,0l0-8.5400390625l0.794921875,0l0.12890625,0.8056640625l0.04296875,0q0.34375-0.4833984375,0.794921875-0.6982421875t1.0419921875-0.21484375q1.1494140625,0,1.785888671875,0.797607421875t0.636474609375,2.247802734375q0,1.44482421875-0.63916015625,2.255859375t-1.7939453125,0.81103515625z M53.7431640625,7.99755859375q-0.87548828125,0-1.264892578125,0.494140625t-0.400146484375,1.55224609375l0,0.18798828125q0,1.19775390625,0.3974609375,1.732177734375t1.2890625,0.534423828125q0.7412109375,0,1.157470703125-0.6015625t0.416259765625-1.67578125q0-1.07958984375-0.416259765625-1.651611328125t-1.178955078125-0.572021484375z M60.38720703125,13.298828125q-1.32666015625,0-2.081298828125-0.802978515625t-0.754638671875-2.210205078125q0-1.41796875,0.70361328125-2.258544921875t1.9013671875-0.840576171875q1.11181640625,0,1.7724609375,0.717041015625t0.66064453125,1.941650390625l0,0.58544921875l-4.0390625,0q0.02685546875,1.00439453125,0.51025390625,1.525390625t1.36962890625,0.52099609375q0.47265625,0,0.89697265625-0.083251953125t0.99365234375-0.324951171875l0,0.8486328125q-0.48876953125,0.20947265625-0.91845703125,0.29541015625t-1.01513671875,0.0859375z M60.1455078125,7.97607421875q-0.69287109375,0-1.095703125,0.44580078125t-0.47802734375,1.24072265625l3.00244140625,0q-0.0107421875-0.8271484375-0.38134765625-1.2568359375t-1.04736328125-0.4296875z M66.171875,13.298828125q-1.1494140625,0-1.783203125-0.794921875t-0.6337890625-2.25048828125q0-1.44482421875,0.636474609375-2.255859375t1.791259765625-0.81103515625q1.18701171875,0,1.826171875,0.8701171875l0.06982421875,0q-0.01611328125-0.107421875-0.04296875-0.432373046875t-0.02685546875-0.437744140625l0-2.3525390625l0.966796875,0l0,8.357421875l-0.77880859375,0l-0.14501953125-0.78955078125l-0.04296875,0q-0.61767578125,0.89697265625-1.8369140625,0.89697265625z M66.32763671875,12.49853515625q0.880859375,0,1.286376953125-0.480712890625t0.405517578125-1.576416015625l0-0.17724609375q0-1.22998046875-0.410888671875-1.753662109375t-1.291748046875-0.523681640625q-0.74658203125,0-1.15478515625,0.593505859375t-0.408203125,1.694580078125q0,1.095703125,0.405517578125,1.65966796875t1.168212890625,0.56396484375z M71.81689453125,13.19140625l-0.966796875,0l0-5.8974609375l0.966796875,0l0,5.8974609375z M70.77490234375,5.69873046875q0-0.322265625,0.163818359375-0.46728515625t0.405517578125-0.14501953125q0.2255859375,0,0.394775390625,0.14501953125t0.169189453125,0.46728515625q0,0.31689453125-0.169189453125,0.46728515625t-0.394775390625,0.150390625q-0.24169921875,0-0.405517578125-0.150390625t-0.163818359375-0.46728515625z M75.775390625,13.298828125q-1.1494140625,0-1.783203125-0.794921875t-0.6337890625-2.25048828125q0-1.44482421875,0.636474609375-2.255859375t1.791259765625-0.81103515625q1.18701171875,0,1.826171875,0.8701171875l0.06982421875,0q-0.01611328125-0.107421875-0.04296875-0.432373046875t-0.02685546875-0.437744140625l0-2.3525390625l0.966796875,0l0,8.357421875l-0.77880859375,0l-0.14501953125-0.78955078125l-0.04296875,0q-0.61767578125,0.89697265625-1.8369140625,0.89697265625z M75.93115234375,12.49853515625q0.880859375,0,1.286376953125-0.480712890625t0.405517578125-1.576416015625l0-0.17724609375q0-1.22998046875-0.410888671875-1.753662109375t-1.291748046875-0.523681640625q-0.74658203125,0-1.15478515625,0.593505859375t-0.408203125,1.694580078125q0,1.095703125,0.405517578125,1.65966796875t1.168212890625,0.56396484375z M85.57763671875,10.23193359375q0,1.44482421875-0.73046875,2.255859375t-2.01953125,0.81103515625q-0.80029296875,0-1.41796875-0.373291015625t-0.95068359375-1.071533203125t-0.3330078125-1.6220703125q0-1.439453125,0.7197265625-2.242431640625t2.01953125-0.802978515625q1.24609375,0,1.979248046875,0.819091796875t0.733154296875,2.226318359375z M81.125,10.23193359375q0,1.11181640625,0.437744140625,1.689208984375t1.291748046875,0.577392578125q0.84326171875,0,1.28369140625-0.577392578125t0.4404296875-1.689208984375t-0.443115234375-1.673095703125t-1.297119140625-0.561279296875q-1.71337890625,0-1.71337890625,2.234375z "/></svg>
</svg>

</svg>
